PathFileType	4	(X/Y/Z)	/Users/itak/Documents/Research/Walk-IL/dataset/trc/00436_00167.trc
DataRate	CameraRate	NumFrames	NumMarkers	Units	OrigDataRate	OrigDataStartFrame	OrigNumFrames
100.000000	100.000000	4	56	mm	100.000000	293	470
Frame#	Time	RPSI			LPSI			L3			STRN			T10			C7			CLAV			RBAK			LBAK			LSHO			LUPA			LAEL			LAOL			LWTS			LWPS			LFRA			LIFD			LHPS			LHTS			RSHO			RUPA			RAEL			RAOL			RWTS			RWPS			RFRA			RIFD			RHTS			RHPS			RBHD			LFHD			RFHD			LBHD			LHIP			RHIP			RASI			LASI			LKNE			LTHI			LANK			LTIP			LTOE			LMT1			LMT5			LHEE			RKNE			RTHI			RANK			RTIP			RTOE			RMT1			RMT5			RHEE			*53			*54			*55			
		X1	Y1	Z1	X2	Y2	Z2	X3	Y3	Z3	X4	Y4	Z4	X5	Y5	Z5	X6	Y6	Z6	X7	Y7	Z7	X8	Y8	Z8	X9	Y9	Z9	X10	Y10	Z10	X11	Y11	Z11	X12	Y12	Z12	X13	Y13	Z13	X14	Y14	Z14	X15	Y15	Z15	X16	Y16	Z16	X17	Y17	Z17	X18	Y18	Z18	X19	Y19	Z19	X20	Y20	Z20	X21	Y21	Z21	X22	Y22	Z22	X23	Y23	Z23	X24	Y24	Z24	X25	Y25	Z25	X26	Y26	Z26	X27	Y27	Z27	X28	Y28	Z28	X29	Y29	Z29	X30	Y30	Z30	X31	Y31	Z31	X32	Y32	Z32	X33	Y33	Z33	X34	Y34	Z34	X35	Y35	Z35	X36	Y36	Z36	X37	Y37	Z37	X38	Y38	Z38	X39	Y39	Z39	X40	Y40	Z40	X41	Y41	Z41	X42	Y42	Z42	X43	Y43	Z43	X44	Y44	Z44	X45	Y45	Z45	X46	Y46	Z46	X47	Y47	Z47	X48	Y48	Z48	X49	Y49	Z49	X50	Y50	Z50	X51	Y51	Z51	X52	Y52	Z52	X53	Y53	Z53	X54	Y54	Z54	X55	Y55	Z55	X56	Y56	Z56	

294	2.93	137.0641937255859	916.4580078125	404.7135620117188	207.5348358154297	931.1193237304688	282.328125	177.0736236572266	1025.036254882812	347.8486022949219	410.1804504394531	1211.204956054688	494.7229309082031	173.4522247314453	1149.63134765625	329.961669921875	228.2420501708984	1414.93310546875	384.8375549316406	381.6773071289062	1326.463989257812	478.6636962890625	120.1542053222656	1296.488647460938	418.2626953125	264.3412780761719	1372.394775390625	280.7254028320312	390.7127990722656	1394.213745117188	288.430419921875	475.9866027832031	1296.32568359375	212.6993255615234	600.2178344726562	1123.860107421875	231.2853698730469	520.7911376953125	1057.599853515625	224.2534790039062	714.2815551757812	1010.134399414062	379.2654724121094	737.6365966796875	975.8422241210938	317.797607421875	661.68212890625	1067.674926757812	265.5521545410156	814.8792114257812	889.9851684570312	441.5353393554688	786.6422119140625	922.2203369140625	352.1567687988281	779.98046875	957.7329711914062	413.4587097167969	191.0414428710938	1375.9794921875	556.0896606445312	128.8869171142578	1315.788208007812	602.8632202148438	68.19654846191406	1030.410766601562	626.693359375	46.2236213684082	1022.777465820312	562.0928955078125	156.738037109375	817.6915893554688	623.0660400390625	69.77188873291016	809.8675537109375	635.0278930664062	60.02996063232422	971.984619140625	631.181396484375	139.0494079589844	660.4258422851562	609.4508666992188	154.7064361572266	716.4813842773438	629.9144897460938	77.94338989257812	720.896240234375	631.8362426757812	246.5897064208984	1597.574096679688	519.3914794921875	442.9037170410156	1625.776000976562	461.3560791015625	373.8262329101562	1615.945190429688	571.388916015625	328.0360717773438	1616.398803710938	361.0829162597656	380.1231079101562	832.6478881835938	240.3449859619141	186.2660217285156	822.7879638671875	592.498046875	299.9972229003906	873.6519775390625	578.448486328125	431.8705139160156	864.6094360351562	359.3629455566406	299.4974670410156	412.2691955566406	271.6604614257812	357.3647155761719	562.7672119140625	270.3252258300781	130.7101593017578	35.84843063354492	197.9281311035156	253.0556640625	261.3844604492188	247.2448120117188	250.1083831787109	39.02260208129883	399.9927368164062	179.0287628173828	47.22928619384766	368.7207946777344	253.7127838134766	39.33009719848633	282.1197814941406	58.36310958862305	45.92399597167969	198.0706176757812	340.7120361328125	456.002685546875	652.3113403320312	245.4844970703125	702.5734252929688	642.8344116210938	479.5479431152344	45.99006271362305	733.0604858398438	377.9506530761719	325.6992492675781	695.6693725585938	646.8216552734375	157.2510681152344	807.3872680664062	624.39990234375	133.4365081787109	741.5512084960938	564.701171875	93.40167236328125	819.3565063476562	457.2449645996094	22.53923034667969	657.894287109375	nan	nan	nan	nan	nan	nan	nan	nan	nan	
295	2.94	146.5378570556641	913.8302612304688	412.6226196289062	216.3588256835938	929.0989379882812	289.9628601074219	186.1309509277344	1022.132568359375	355.3015441894531	419.7582092285156	1208.467041015625	501.1901550292969	182.3310241699219	1146.745239257812	337.4594421386719	236.8857421875	1412.126708984375	392.317626953125	390.9893188476562	1323.668090820312	485.3756713867188	129.0424041748047	1293.337524414062	426.0622863769531	272.6181640625	1369.774658203125	287.9981079101562	399.0434265136719	1391.752319335938	295.1522521972656	484.0474548339844	1293.970458984375	218.931396484375	608.9773559570312	1122.450805664062	237.01513671875	530.1395263671875	1055.2783203125	230.2530670166016	723.61572265625	1012.007263183594	386.6647033691406	747.8325805664062	977.2989501953125	325.7565307617188	670.92529296875	1067.404296875	272.0833740234375	825.7123413085938	894.4074096679688	451.0936279296875	797.4964599609375	924.9756469726562	361.0626831054688	789.93798828125	961.1994018554688	421.8799743652344	200.4430541992188	1372.575927734375	563.6893920898438	138.7896423339844	1311.906127929688	610.62451171875	79.62492370605469	1026.3037109375	634.6767578125	57.49857711791992	1018.608337402344	570.1737060546875	168.4761505126953	813.8258666992188	631.08349609375	81.57759094238281	805.8419189453125	643.0980224609375	71.54608917236328	967.8916625976562	639.2239379882812	151.1145782470703	656.5325927734375	617.6882934570312	166.7064208984375	712.6264038085938	638.0560913085938	89.90425872802734	716.8898315429688	640.0181884765625	255.2231292724609	1594.871459960938	526.5502319335938	451.5862731933594	1623.320190429688	468.5268859863281	382.5025329589844	1613.293090820312	578.5541381835938	336.6757507324219	1613.860473632812	368.1878967285156	388.5429077148438	830.8367309570312	246.3083648681641	196.6524963378906	819.521240234375	599.7771606445312	310.5379943847656	870.4248046875	585.2950439453125	441.1547241210938	861.9332275390625	365.2247619628906	305.0047912597656	411.0063171386719	275.0055236816406	364.2818298339844	561.1270141601562	274.8204956054688	130.752197265625	36.87712478637695	198.0682220458984	256.3474731445312	260.8830871582031	249.0532073974609	250.3503112792969	38.96450424194336	399.9825744628906	179.3446197509766	47.50509262084961	368.722900390625	253.8220520019531	39.19516372680664	282.0144348144531	58.5611572265625	48.09872817993164	198.2251129150391	351.2262573242188	452.8197021484375	657.9974365234375	255.7871704101562	698.9136962890625	649.1565551757812	499.5341186523438	46.12328720092773	743.4764404296875	390.4585266113281	324.0655517578125	702.4710083007812	664.0753784179688	162.4544525146484	816.77490234375	642.1011962890625	137.7042083740234	751.204833984375	583.9757690429688	95.83689880371094	829.3558959960938	477.7989807128906	22.0362606048584	668.2689208984375	nan	nan	nan	nan	nan	nan	nan	nan	nan	
296	2.95	156.1081848144531	911.2849731445312	420.5672912597656	225.3791656494141	927.1201171875	297.7015686035156	195.3461761474609	1019.292419433594	362.8678894042969	429.4351196289062	1205.811279296875	507.8140563964844	191.3052062988281	1143.930053710938	345.1368408203125	245.5971527099609	1409.419799804688	399.9845886230469	400.3825073242188	1320.9453125	492.2311096191406	137.9780883789062	1290.282592773438	434.0556945800781	280.9349975585938	1367.234130859375	295.4614868164062	407.4476623535156	1389.33447265625	301.9772033691406	491.9839782714844	1291.483032226562	225.1749267578125	617.3672485351562	1120.695922851562	242.5951690673828	538.971923828125	1052.73388671875	236.2135009765625	732.4169311523438	1013.293640136719	393.7497253417969	757.4324951171875	978.1846313476562	333.4033203125	679.7125244140625	1066.67236328125	278.3984069824219	835.771484375	898.0787353515625	460.2676086425781	807.6641235351562	927.0510864257812	369.6262817382812	799.2606811523438	963.9600830078125	429.9437866210938	209.9341735839844	1369.223754882812	571.4841918945312	148.8034820556641	1308.049438476562	618.5831909179688	91.241455078125	1022.22998046875	642.8421630859375	68.92039489746094	1014.481323242188	578.4566650390625	180.3539733886719	809.9884643554688	639.273193359375	93.51311492919922	801.857421875	651.321533203125	83.24298095703125	963.8228759765625	647.437255859375	163.2745971679688	652.6603393554688	626.1203002929688	178.8140106201172	708.7974243164062	646.387939453125	101.9758071899414	712.9166870117188	648.3738403320312	263.9119262695312	1592.318115234375	533.8482666015625	460.3252563476562	1620.94140625	475.7709045410156	391.2562866210938	1610.7763671875	585.8240356445312	345.3439331054688	1611.405639648438	375.4054565429688	397.1893310546875	828.9948120117188	252.5072021484375	207.0317535400391	816.4381103515625	607.177978515625	321.0347900390625	867.3467407226562	592.2099609375	450.5584411621094	859.2142333984375	371.3813171386719	310.8526916503906	409.7375183105469	278.54443359375	371.5030212402344	559.4779663085938	279.5683898925781	130.9914703369141	38.12201690673828	198.0897064208984	259.9405212402344	260.462890625	250.9433441162109	250.5568237304688	38.90582656860352	399.9696655273438	179.7142639160156	47.84690475463867	368.6789855957031	253.9722900390625	39.02590942382812	281.9014892578125	58.98308944702148	50.6208381652832	198.2197723388672	362.2855529785156	450.072021484375	664.1500854492188	266.3930969238281	695.654296875	655.7809448242188	517.0131225585938	45.56996154785156	751.96484375	402.822998046875	322.2886352539062	709.0615234375	679.5989379882812	165.3267364501953	824.6498413085938	657.923095703125	140.0363922119141	759.2609252929688	600.9986572265625	96.6300048828125	837.5889282226562	495.6875	21.30289459228516	676.6592407226562	nan	nan	nan	nan	nan	nan	nan	nan	nan	
297	2.96	165.7961273193359	908.858642578125	428.5355529785156	234.6226196289062	925.2174072265625	305.5282897949219	204.7413635253906	1016.551574707031	370.5330505371094	439.2083129882812	1203.275268554688	514.61083984375	200.3901062011719	1141.215576171875	352.9681396484375	254.3821716308594	1406.836181640625	407.837158203125	409.85498046875	1318.336669921875	499.2400512695312	146.9730224609375	1287.35888671875	442.2328186035156	289.3045349121094	1364.802368164062	303.1153259277344	415.9375	1386.997436523438	308.9184875488281	499.8122253417969	1288.911987304688	231.4488525390625	625.3724975585938	1118.618530273438	248.0346984863281	547.262451171875	1050.01171875	242.1431121826172	740.7001342773438	1013.984069824219	400.5180358886719	766.4337768554688	978.483642578125	340.7176208496094	688.03125	1065.487915039062	284.4924621582031	845.0794067382812	900.9590454101562	469.0253601074219	817.1476440429688	928.4197387695312	377.818359375	807.9653930664062	965.9896850585938	437.6283874511719	219.5153350830078	1365.96240234375	579.4664306640625	158.9301910400391	1304.267700195312	626.73486328125	103.0581588745117	1018.232788085938	651.2012329101562	80.49127960205078	1010.446044921875	586.9476928710938	192.3757629394531	806.2188720703125	647.614013671875	105.5871810913086	797.9658813476562	659.7023315429688	95.13688659667969	959.8255004882812	655.823974609375	175.5193481445312	648.8507080078125	634.7368774414062	191.0319671630859	705.0341186523438	654.8939208984375	114.1607055664062	709.0260009765625	656.9072265625	272.6615905761719	1589.9248046875	541.2896728515625	469.1091003417969	1618.666015625	483.0987548828125	400.0783081054688	1608.419921875	593.205810546875	354.0386047363281	1609.052490234375	382.7398681640625	406.0742797851562	827.150634765625	258.9485473632812	217.4423675537109	813.6190185546875	614.7025756835938	331.5115051269531	864.5056762695312	599.2325439453125	460.0951538085938	856.474365234375	377.8282470703125	317.0394897460938	408.4792785644531	282.2603759765625	379.0238647460938	557.8413696289062	284.5538330078125	131.4600524902344	39.61822128295898	197.9904022216797	263.8445434570312	260.1452331542969	252.9011840820312	250.7325439453125	38.84968948364258	399.9499816894531	180.1539764404297	48.2650146484375	368.5839233398438	254.1767730712891	38.82219314575195	281.7791442871094	59.66417694091797	53.53128814697266	198.0458831787109	373.9148254394531	447.7694702148438	670.7277221679688	277.3072204589844	692.8843994140625	662.7637939453125	531.9293212890625	44.28802871704102	758.5516357421875	415.13134765625	320.3397827148438	715.4502563476562	693.5389404296875	165.6494598388672	831.0487670898438	671.9618530273438	140.2036285400391	765.7529296875	615.7598266601562	95.71318054199219	844.1021728515625	510.8086853027344	20.26572799682617	683.1102294921875	nan	nan	nan	nan	nan	nan	nan	nan	nan	
